<?xml version="1.0" encoding="UTF-8" standalone="no"?>
<svg
   xmlns:dc="http://purl.org/dc/elements/1.1/"
   xmlns:cc="http://creativecommons.org/ns#"
   xmlns:rdf="http://www.w3.org/1999/02/22-rdf-syntax-ns#"
   xmlns:svg="http://www.w3.org/2000/svg"
   xmlns="http://www.w3.org/2000/svg"
   viewBox="0 0 613.33331 266.66666"
   height="266.66666"
   width="613.33331"
   xml:space="preserve"
   id="svg2"
   version="1.1"><metadata
     id="metadata8"><rdf:RDF><cc:Work
         rdf:about=""><dc:format>image/svg+xml</dc:format><dc:type
           rdf:resource="http://purl.org/dc/dcmitype/StillImage" /></cc:Work></rdf:RDF></metadata><defs
     id="defs6"><clipPath
       id="clipPath18"
       clipPathUnits="userSpaceOnUse"><path
         id="path16"
         d="M 0,200 H 460 V 0 H 0 Z" /></clipPath></defs><g
     transform="matrix(1.3333333,0,0,-1.3333333,0,266.66667)"
     id="g10"><g
       id="g12"><g
         clip-path="url(#clipPath18)"
         id="g14"><g
           transform="translate(11.1753,92.5557)"
           id="g20"><path
             id="path22"
             style="fill:#90c14a;fill-opacity:1;fill-rule:nonzero;stroke:none"
             d="m 0,0 c 13.005,-4.802 24.493,-12.065 34.517,-21.594 13.676,-12.998 22.438,-28.754 26.056,-47.317 1.081,-5.551 1.694,-11.149 1.784,-16.805 0.011,-0.667 -0.08,-0.852 -0.815,-0.659 -6.676,1.759 -12.88,4.603 -18.737,8.206 -15.87,9.763 -26.963,23.565 -34.142,40.634 C 4.862,-28.497 2.44,-19.076 1.054,-9.383 0.729,-7.115 0.478,-4.838 0.191,-2.564 0.17,-2.4 0.22,-2.2 0,-2.119 v 0.353 c 0.146,0.412 0.146,0.825 0,1.236 z" /></g><g
           transform="translate(11.7227,101.9199)"
           id="g24"><path
             id="path26"
             style="fill:#90c14a;fill-opacity:1;fill-rule:nonzero;stroke:none"
             d="m 0,0 c -0.182,-0.002 -0.365,-0.005 -0.547,-0.008 v 54.552 c 2.186,0.094 4.336,-0.278 6.481,-0.58 9.811,-1.381 19.343,-3.844 28.55,-7.526 8.755,-3.501 16.943,-8 24.347,-13.875 0.09,-0.071 0.167,-0.16 0.25,-0.241 C 58.872,32.059 58.569,32.051 58.277,32.047 52.904,31.964 47.813,30.618 42.853,28.653 34.815,25.471 26.461,23.559 17.898,22.51 12.493,21.848 7.068,21.53 1.621,21.616 0.26,21.637 0.247,21.606 0.247,20.241 0.245,13.975 0.249,7.708 0.24,1.441 0.24,0.954 0.361,0.433 0,0" /></g><g
           transform="translate(83.9111,2.166)"
           id="g28"><path
             id="path30"
             style="fill:#2b5e9f;fill-opacity:1;fill-rule:nonzero;stroke:none"
             d="M 0,0 C 0.116,0.897 -0.09,1.809 0.113,2.702 0.444,2.52 0.339,2.116 0.577,1.807 c 0.533,0.464 0.892,1.058 1.289,1.61 6.925,9.615 11.738,20.201 14.526,31.711 0.754,3.116 1.317,6.27 1.735,9.45 0.057,0.435 0.063,0.888 0.425,1.217 1.01,0.127 1.987,-0.132 2.96,-0.307 6.343,-1.138 12.344,-3.331 18.213,-5.936 3.889,-1.727 7.991,-2.738 12.162,-3.504 0.576,-0.106 1.267,0.035 1.679,-0.578 C 50.809,31.977 47.716,28.798 44.45,25.785 36.252,18.224 27.113,12.016 17.205,6.928 11.926,4.217 6.507,1.83 0.808,0.129 0.765,0.116 0.739,0.044 0.706,0 Z" /></g><g
           transform="translate(448.8242,79.4912)"
           id="g32"><path
             id="path34"
             style="fill:#4daf52;fill-opacity:1;fill-rule:nonzero;stroke:none"
             d="m 0,0 c -2.376,-1.265 -4.03,-3.307 -5.665,-5.347 -2.301,-2.871 -4.359,-5.909 -5.906,-9.267 -0.499,-1.083 -0.742,-2.206 -0.723,-3.412 0.038,-2.559 0.008,-5.119 0.013,-7.677 0.004,-2.149 0.803,-2.953 2.981,-3.055 0.298,-0.013 0.815,0.214 0.805,-0.358 -0.008,-0.453 -0.46,-0.346 -0.765,-0.364 -2.933,-0.17 -5.867,-0.394 -8.802,-0.023 -0.146,0.019 -0.295,0.022 -0.437,0.058 -0.191,0.048 -0.448,0.072 -0.373,0.369 0.061,0.244 0.101,0.525 0.501,0.452 0.865,-0.157 1.195,0.423 1.447,1.097 0.157,0.422 0.181,0.86 0.182,1.302 0.001,2.765 -0.009,5.531 0.007,8.295 0.004,0.637 -0.137,1.233 -0.4,1.79 -2.588,5.493 -5.946,10.462 -10.135,14.862 -0.464,0.488 -0.989,0.924 -1.634,1.177 -0.224,0.088 -0.465,0.184 -0.376,0.495 0.079,0.275 0.32,0.304 0.565,0.315 1.32,0.056 2.641,0.133 3.962,0.168 1.265,0.033 2.529,0.028 3.794,0.029 0.28,0 0.639,0.089 0.761,-0.274 0.105,-0.313 -0.175,-0.487 -0.391,-0.619 -0.681,-0.417 -0.653,-0.932 -0.328,-1.573 2.053,-4.034 4.392,-7.906 6.702,-11.793 0.043,-0.071 0.123,-0.121 0.25,-0.242 1.47,3.607 4.124,6.453 5.921,9.825 0.275,0.517 0.538,1.046 0.745,1.594 0.413,1.09 0.284,1.45 -0.707,2.13 -0.151,0.104 -0.316,0.167 -0.294,0.379 0.026,0.249 0.206,0.345 0.428,0.362 2.579,0.209 5.158,0.321 7.732,-0.062 C -0.089,0.625 -0.046,0.565 0,0.529 Z" /></g><g
           transform="translate(11.1753,92.0254)"
           id="g36"><path
             id="path38"
             style="fill:#b6d486;fill-opacity:1;fill-rule:nonzero;stroke:none"
             d="M 0,0 C 0.242,-0.411 0.321,-0.823 0,-1.235 Z" /></g><g
           transform="translate(137.4771,37.6357)"
           id="g40"><path
             id="path42"
             style="fill:#4daf52;fill-opacity:1;fill-rule:nonzero;stroke:none"
             d="m 0,0 c -2.116,0.441 -4.239,0.855 -6.348,1.328 -3.911,0.878 -7.532,2.558 -11.218,4.068 -5.405,2.216 -10.94,4.005 -16.775,4.707 -0.232,0.027 -0.46,0.089 -0.689,0.135 -0.331,-0.268 -0.712,-0.21 -1.094,-0.174 -3.299,0.312 -6.564,0.174 -9.742,-0.847 -2.06,-0.662 -3.936,-1.672 -5.5,-3.201 -0.105,-0.103 -0.207,-0.208 -0.322,-0.298 -0.208,-0.162 -0.423,-0.38 -0.703,-0.27 -0.349,0.138 -0.285,0.464 -0.246,0.76 0.046,0.647 0.016,1.294 0.016,1.94 0,24.362 0.008,48.723 -10e-4,73.084 0,0.292 -0.039,0.591 0.11,0.865 0.012,2.653 0.034,5.306 0.025,7.96 -0.002,0.495 0.066,0.92 0.461,1.246 0.342,0.52 0.782,0.936 1.304,1.276 3.146,2.048 6.604,3.167 10.327,3.552 6.096,0.631 11.9,-0.639 17.503,-2.853 8.234,-3.253 16.741,-5.36 25.506,-6.457 3.117,-0.39 6.243,-0.762 9.395,-0.76 0.422,0 0.824,-0.057 1.141,-0.373 2.323,-0.008 4.646,-0.043 6.968,-0.009 0.653,0.01 0.832,-0.146 0.832,-0.817 C 20.932,56.449 20.931,28.036 20.953,-0.377 20.954,-1.135 20.671,-1.225 20.038,-1.23 13.534,-1.291 7.054,-0.999 0.615,-0.016 0.414,0.016 0.206,-0.004 0,0" /></g><g
           transform="translate(84.9653,119.7324)"
           id="g44"><path
             id="path46"
             style="fill:#2b5e9f;fill-opacity:1;fill-rule:nonzero;stroke:none"
             d="M 0,0 C 0.204,-0.316 0.183,-0.67 0.183,-1.024 0.182,-25.765 0.182,-50.505 0.177,-75.245 c 0,-0.279 0.109,-0.594 -0.152,-0.832 -0.322,0.025 -0.512,0.262 -0.723,0.46 -2.596,2.448 -5.747,3.622 -9.229,4.089 -0.856,0.115 -1.76,-0.028 -2.567,0.402 -2.156,4.37 -4.442,8.666 -7.088,12.765 -12.195,18.889 -28.911,32.012 -50.172,39.342 -1.163,0.401 -2.326,0.804 -3.489,1.207 0.002,6.995 0.017,13.991 -0.014,20.986 -0.003,0.799 0.232,0.979 0.996,0.958 5.939,-0.166 11.849,0.201 17.744,0.952 8.893,1.133 17.49,3.349 25.826,6.666 4.643,1.848 9.506,2.791 14.53,2.76 C -9.1,10.58 -4.685,6.012 -0.773,0.945 -0.524,0.623 -0.258,0.314 0,0" /></g><g
           transform="translate(150.627,123.3242)"
           id="g48"><path
             id="path50"
             style="fill:#2b5e9f;fill-opacity:1;fill-rule:nonzero;stroke:none"
             d="m 0,0 c -2.19,0.179 -4.387,0.242 -6.577,0.448 -4.527,0.427 -9.006,1.125 -13.462,2.019 -6.472,1.298 -12.608,3.642 -18.801,5.842 -3.914,1.39 -7.995,2.108 -12.171,2.034 -5.206,-0.093 -10.025,-1.41 -14.165,-4.728 0.065,5.347 0.133,10.695 0.192,16.043 0.03,2.734 0.037,5.468 0.065,8.202 0.044,4.174 0.114,8.348 0.127,12.521 0.003,0.659 0.283,0.68 0.783,0.68 6.768,0.004 13.501,-0.483 20.206,-1.397 8.751,-1.194 17.319,-3.152 25.663,-6.057 3.662,-1.274 7.244,-2.739 10.715,-4.475 0.573,-0.286 0.89,-0.664 1.07,-1.272 C -4.281,22.813 -2.692,15.653 -1.399,8.426 -0.898,5.624 -0.464,2.809 0,0" /></g><g
           transform="translate(289.1318,148.9229)"
           id="g52"><path
             id="path54"
             style="fill:#2b5e9f;fill-opacity:1;fill-rule:nonzero;stroke:none"
             d="m 0,0 c -0.733,-3.889 -1.469,-7.777 -2.2,-11.667 -0.728,-3.866 -1.462,-7.732 -2.167,-11.603 -0.106,-0.577 -0.278,-0.825 -0.94,-0.81 -2.264,0.053 -4.53,0.034 -6.795,0.011 -0.546,-0.006 -0.782,0.059 -0.642,0.71 2.194,10.189 4.377,20.38 6.523,30.578 0.163,0.777 0.474,0.955 1.212,0.947 C -1.627,8.128 1.757,8.119 5.139,8.17 5.998,8.184 6.258,7.987 6.303,7.083 6.616,0.804 7.004,-5.471 7.37,-11.748 c 0.005,-0.079 -0.013,-0.188 0.164,-0.198 0.282,0.183 0.348,0.547 0.497,0.844 3.078,6.142 6.157,12.283 9.204,18.439 0.302,0.61 0.635,0.839 1.332,0.831 3.588,-0.041 7.177,-0.034 10.766,-0.005 0.679,0.005 0.926,-0.102 0.761,-0.859 -2.221,-10.182 -4.425,-20.368 -6.599,-30.56 -0.141,-0.667 -0.392,-0.827 -1.031,-0.818 -2.468,0.036 -4.937,0.015 -7.493,0.015 1.953,8.075 3.888,16.078 5.824,24.082 -0.055,0.021 -0.11,0.042 -0.166,0.064 -0.797,-1.644 -1.594,-3.289 -2.392,-4.933 -2.985,-6.151 -5.979,-12.299 -8.943,-18.461 -0.284,-0.589 -0.61,-0.789 -1.264,-0.77 -1.822,0.052 -3.648,0.064 -5.469,-0.004 -0.819,-0.03 -1.06,0.16 -1.103,1.02 C 1.085,-15.607 0.651,-8.157 0.233,-0.706 0.221,-0.479 0.186,-0.252 0.161,-0.026 0.107,-0.017 0.054,-0.009 0,0" /></g><g
           transform="translate(184.7686,143.3701)"
           id="g56"><path
             id="path58"
             style="fill:#2b5e9f;fill-opacity:1;fill-rule:nonzero;stroke:none"
             d="m 0,0 c -1.269,-5.955 -2.529,-11.84 -3.767,-17.73 -0.12,-0.572 -0.302,-0.81 -0.958,-0.797 -2.647,0.05 -5.295,0.038 -7.942,0.007 -0.588,-0.007 -0.684,0.156 -0.566,0.7 2.225,10.273 4.44,20.548 6.634,30.827 0.118,0.552 0.333,0.711 0.873,0.706 2.618,-0.024 5.237,-0.035 7.855,0.006 0.644,0.01 0.917,-0.225 1.153,-0.789 2.403,-5.74 4.833,-11.467 7.255,-17.198 0.079,-0.187 0.161,-0.373 0.276,-0.638 0.383,0.693 0.418,1.4 0.563,2.064 1.148,5.249 2.277,10.502 3.382,15.76 0.127,0.604 0.351,0.809 0.981,0.8 2.618,-0.037 5.237,-0.027 7.855,-0.007 0.566,0.004 0.754,-0.071 0.611,-0.732 -2.228,-10.272 -4.428,-20.55 -6.615,-30.832 -0.117,-0.553 -0.369,-0.67 -0.888,-0.665 -2.618,0.025 -5.237,0.034 -7.855,-0.005 -0.599,-0.009 -0.871,0.179 -1.1,0.722 C 5.349,-12.124 2.925,-6.457 0.501,-0.789 0.392,-0.533 0.37,-0.215 0,0" /></g><g
           transform="translate(224.2588,124.3345)"
           id="g60"><path
             id="path62"
             style="fill:#2b5e9f;fill-opacity:1;fill-rule:nonzero;stroke:none"
             d="m 0,0 c -3.009,0.018 -6.001,0.194 -8.775,1.532 -3.454,1.666 -5.594,5.391 -5.354,9.209 0.026,0.411 0.14,0.542 0.558,0.567 2.699,0.161 5.397,0.34 8.092,0.544 0.55,0.041 0.81,-0.09 0.806,-0.679 -0.003,-0.408 0.057,-0.823 0.139,-1.225 0.482,-2.364 2.358,-3.702 5.034,-3.556 1.363,0.074 2.689,0.298 3.708,1.363 1.364,1.425 1.197,3.183 -0.46,4.27 -0.937,0.616 -1.984,1.016 -3.033,1.4 -2.234,0.818 -4.414,1.746 -6.555,2.794 -6.348,3.108 -5.653,11.213 -0.723,14.62 1.882,1.301 3.985,2.005 6.226,2.282 3.356,0.414 6.699,0.285 9.953,-0.698 3.769,-1.139 6.213,-3.551 6.94,-7.532 0.137,-0.75 0.112,-1.151 -0.868,-1.176 C 13.134,23.65 10.582,23.461 8.031,23.297 7.485,23.262 7.299,23.417 7.213,23.993 6.908,26.011 5.68,27.13 3.629,27.396 2.624,27.527 1.622,27.524 0.676,27.134 -0.244,26.754 -0.945,26.102 -1.007,25.055 -1.064,24.089 -0.402,23.514 0.369,23.065 1.748,22.263 3.268,21.792 4.733,21.191 6.255,20.567 7.752,19.893 9.21,19.13 16.65,15.244 15.591,6.705 10.423,2.805 7.755,0.792 4.719,0.152 1.499,0.003 1,-0.02 0.5,0 0,0" /></g><g
           transform="translate(263.0566,20.1279)"
           id="g64"><path
             id="path66"
             style="fill:#2b5e9f;fill-opacity:1;fill-rule:nonzero;stroke:none"
             d="m 0,0 c 0.923,2.945 1.749,5.729 2.434,8.55 0.955,3.938 1.89,7.882 2.087,11.956 0.057,1.172 -0.019,1.333 -1.129,1.561 -0.087,0.018 -0.179,0.018 -0.26,0.047 C 2.733,22.258 1.981,22 2.043,22.667 c 0.058,0.622 0.788,0.374 1.194,0.383 1.877,0.036 3.752,-0.323 5.633,-0.044 0.582,0.087 1.161,0.194 1.746,0.019 0.233,-0.07 0.59,-10e-4 0.467,-0.438 -0.07,-0.248 -0.106,-0.532 -0.492,-0.468 C 9.326,22.33 8.795,21.507 8.385,20.532 7.05,17.355 6.202,14.024 5.351,10.699 3.938,5.186 2.732,-0.385 0.748,-5.738 0.574,-6.206 0.407,-6.678 0.198,-7.13 0.05,-7.448 0.055,-7.926 -0.489,-7.915 c -0.46,0.009 -0.549,0.396 -0.702,0.694 -0.986,1.906 -1.865,3.86 -2.636,5.861 -1.943,5.038 -3.585,10.181 -5.302,15.298 -0.121,0.361 -0.264,0.713 -0.464,1.25 -0.654,-1.633 -1.259,-3.115 -1.843,-4.603 -2.315,-5.9 -4.426,-11.88 -6.881,-17.726 -0.11,-0.261 -0.13,-0.617 -0.437,-0.731 -0.503,-0.188 -0.74,0.084 -0.886,0.556 -1.451,4.712 -2.855,9.436 -3.813,14.284 -0.841,4.259 -1.578,8.544 -3.05,12.657 -0.478,1.338 -1.055,2.416 -2.652,2.492 -0.113,0.006 -0.233,0.055 -0.331,0.113 -0.311,0.183 -0.876,0.223 -0.792,0.677 0.093,0.507 0.638,0.285 0.982,0.282 2.999,-0.024 5.997,-0.073 8.996,-0.117 0.175,-0.003 0.351,-0.025 0.526,-0.046 0.21,-0.024 0.423,-0.056 0.429,-0.336 0.006,-0.256 -0.173,-0.346 -0.384,-0.404 -0.369,-0.099 -0.729,-0.242 -1.102,-0.3 -0.75,-0.115 -0.927,-0.517 -0.819,-1.235 0.668,-4.474 1.374,-8.941 2.187,-13.392 0.428,-2.338 0.882,-4.673 1.371,-7.259 0.449,1.148 0.818,2.076 1.176,3.007 2.46,6.379 4.917,12.76 7.378,19.138 0.131,0.337 0.135,0.794 0.656,0.819 0.515,0.025 0.589,-0.412 0.747,-0.743 C -5.639,17.088 -3.948,11.553 -2.083,6.084 -1.411,4.114 -0.847,2.107 0,0" /></g><g
           transform="translate(208.6284,72.7803)"
           id="g68"><path
             id="path70"
             style="fill:#4daf52;fill-opacity:1;fill-rule:nonzero;stroke:none"
             d="m 0,0 c -0.175,-2.287 -0.095,-4.334 -0.03,-6.378 0.133,-4.17 0.311,-8.338 0.447,-12.507 0.06,-1.825 0.481,-2.377 2.246,-2.832 0.421,-0.109 0.824,-0.299 1.226,-0.471 0.184,-0.08 0.404,-0.191 0.363,-0.438 -0.048,-0.291 -0.294,-0.324 -0.544,-0.321 -0.793,0.01 -1.59,-0.022 -2.381,0.036 -2.027,0.148 -4.049,0.058 -6.073,-0.048 -0.433,-0.023 -1.135,-0.166 -1.232,0.365 -0.122,0.671 0.645,0.526 1.041,0.646 1.415,0.43 2.033,1.205 2.034,2.697 0.002,8.324 10e-4,16.648 10e-4,24.974 0,0.264 -0.019,0.531 0.01,0.793 0.052,0.48 0.354,0.822 0.761,1.011 0.417,0.194 0.631,-0.212 0.864,-0.449 6.196,-6.319 12.283,-12.74 18.269,-19.257 1.147,-1.248 2.292,-2.499 3.566,-3.886 0,2.39 0.027,4.608 -0.006,6.825 -0.06,4.055 -0.153,8.11 -0.24,12.165 -0.01,0.439 -0.026,0.887 -0.111,1.315 -0.163,0.82 -0.647,1.363 -1.493,1.543 -0.516,0.111 -1.036,0.21 -1.54,0.362 -0.245,0.074 -0.52,0.248 -0.466,0.56 0.058,0.331 0.375,0.325 0.638,0.326 1.353,0.006 2.706,0.01 4.059,0.002 1.323,-0.009 2.645,-0.026 3.967,-0.057 0.27,-0.006 0.612,0.066 0.672,-0.379 C 26.106,6.171 25.819,5.94 25.524,5.9 23.619,5.643 23.55,4.367 23.58,2.821 c 0.087,-4.675 0.056,-9.352 0.074,-14.028 0.014,-3.705 -0.122,-7.405 -0.415,-11.099 -0.026,-0.33 0.101,-0.744 -0.345,-0.914 -0.41,-0.156 -0.659,0.147 -0.922,0.371 -3.83,3.269 -7.375,6.832 -10.777,10.536 C 7.655,-8.46 4.164,-4.562 0.651,-0.685 0.496,-0.514 0.333,-0.35 0,0" /></g><g
           transform="translate(291.5596,109.8135)"
           id="g72"><path
             id="path74"
             style="fill:#4daf52;fill-opacity:1;fill-rule:nonzero;stroke:none"
             d="m 0,0 c -0.327,-1.859 -0.176,-3.619 -0.119,-5.37 0.137,-4.2 0.417,-8.395 0.439,-12.6 0.002,-0.469 0.009,-0.942 0.059,-1.408 0.129,-1.212 0.714,-2.019 1.992,-2.229 0.4,-0.066 0.797,-0.208 1.17,-0.373 0.272,-0.12 0.712,-0.194 0.628,-0.613 -0.087,-0.428 -0.509,-0.311 -0.815,-0.305 -0.998,0.019 -1.997,0.053 -2.995,0.093 -1.499,0.061 -2.996,0.084 -4.49,-0.098 -0.317,-0.039 -0.647,-0.031 -0.967,0.002 -0.358,0.036 -0.892,-0.078 -0.948,0.408 -0.061,0.537 0.512,0.466 0.848,0.557 1.697,0.462 2.26,1.198 2.261,3.068 0.005,8.208 0.002,16.416 0.002,24.625 0,0.264 -0.008,0.53 0.008,0.794 0.03,0.485 0.301,0.843 0.718,1.033 0.421,0.193 0.632,-0.207 0.867,-0.445 6.752,-6.847 13.336,-13.853 19.832,-20.942 0.627,-0.683 1.256,-1.366 2.055,-2.235 0,2.089 0.037,3.931 -0.008,5.771 -0.107,4.437 -0.292,8.873 -0.267,13.312 0.001,0.472 -0.012,0.937 -0.148,1.397 -0.229,0.777 -0.707,1.259 -1.518,1.416 -0.544,0.106 -1.114,0.139 -1.612,0.413 -0.199,0.11 -0.436,0.266 -0.346,0.545 0.071,0.216 0.293,0.259 0.512,0.259 2.736,-0.002 5.471,10e-4 8.206,-0.006 0.263,0 0.535,-0.021 0.603,-0.376 C 26.036,6.332 25.841,6.145 25.562,5.999 25.51,5.971 25.459,5.927 25.404,5.921 23.681,5.733 23.55,4.607 23.565,3.158 c 0.066,-5.853 0.065,-11.708 0.011,-17.561 -0.023,-2.554 -0.219,-5.107 -0.372,-7.659 -0.022,-0.373 0.119,-0.896 -0.367,-1.094 -0.519,-0.211 -0.798,0.27 -1.114,0.539 -2.901,2.453 -5.595,5.123 -8.226,7.857 C 9.093,-10.183 4.906,-5.407 0.647,-0.698 0.455,-0.485 0.258,-0.277 0,0" /></g><g
           transform="translate(305.3477,19.6533)"
           id="g76"><path
             id="path78"
             style="fill:#2b5e9f;fill-opacity:1;fill-rule:nonzero;stroke:none"
             d="m 0,0 c 0.217,2.217 0.063,4.211 0.027,6.198 -0.078,4.291 -0.26,8.581 -0.256,12.874 0.002,1.982 -0.382,2.455 -2.31,2.881 -0.029,0.007 -0.056,0.02 -0.084,0.026 -0.494,0.131 -1.268,0.139 -1.179,0.774 0.073,0.517 0.816,0.263 1.249,0.253 2.441,-0.054 4.88,0.172 7.32,0.015 C 5.082,23 5.418,23.079 5.498,22.601 5.575,22.142 5.232,21.967 4.963,21.932 3.16,21.694 3.051,20.517 3.067,19.016 3.136,13.073 3.132,7.13 3.078,1.187 3.056,-1.308 2.847,-3.802 2.704,-6.295 2.686,-6.627 2.756,-7.055 2.326,-7.207 1.92,-7.351 1.674,-7.02 1.412,-6.797 c -4.716,4.01 -8.956,8.498 -13.117,13.064 -2.813,3.085 -5.6,6.194 -8.399,9.292 -0.092,0.103 -0.19,0.202 -0.361,0.383 -0.367,-1.719 -0.196,-3.352 -0.146,-4.97 0.141,-4.525 0.423,-9.044 0.461,-13.572 0.016,-2.021 0.445,-2.572 2.366,-3.094 0.365,-0.099 0.714,-0.266 1.06,-0.423 0.207,-0.094 0.48,-0.191 0.412,-0.49 -0.077,-0.342 -0.379,-0.304 -0.645,-0.3 -0.853,0.014 -1.706,0.016 -2.558,0.045 -1.705,0.056 -3.407,0.121 -5.11,-0.052 -0.436,-0.044 -0.882,0 -1.322,0.026 -0.258,0.016 -0.568,0.021 -0.596,0.382 -0.027,0.351 0.246,0.425 0.517,0.481 0.057,0.011 0.117,0.013 0.173,0.027 1.848,0.449 2.416,1.179 2.417,3.111 0.002,3.561 0.001,7.121 0.001,10.681 v 13.947 c 0,0.236 -0.005,0.471 0.005,0.706 0.025,0.517 0.277,0.916 0.743,1.109 0.458,0.19 0.687,-0.237 0.939,-0.495 C -16.02,17.187 -10.354,11.254 -4.8,5.217 -3.251,3.533 -1.702,1.85 0,0" /></g><g
           transform="translate(195.9141,94.2324)"
           id="g80"><path
             id="path82"
             style="fill:#4daf52;fill-opacity:1;fill-rule:nonzero;stroke:none"
             d="m 0,0 c 0,-1.559 -0.023,-3.118 0.013,-4.677 0.012,-0.54 -0.171,-0.86 -0.619,-1.141 -1.818,-1.141 -3.848,-1.636 -5.935,-1.776 -3.079,-0.207 -6.208,-0.431 -9.216,0.38 -6.345,1.71 -10.089,6.033 -11.472,12.338 -1.056,4.814 -0.344,9.376 2.952,13.271 2.598,3.07 6.058,4.553 9.944,5.167 3.74,0.591 7.444,0.097 11.144,-0.424 0.931,-0.131 1.857,-0.297 2.79,-0.407 0.4,-0.047 0.578,-0.206 0.575,-0.605 -0.009,-1.941 -0.018,-3.882 -0.499,-5.782 -0.044,-0.17 -0.094,-0.341 -0.162,-0.503 -0.14,-0.336 -0.318,-0.651 -0.753,-0.622 -0.451,0.029 -0.429,0.416 -0.498,0.717 -0.604,2.647 -2.18,4.506 -4.72,5.385 -7.351,2.546 -16.898,-1.855 -16.936,-11.59 -0.022,-5.664 2.517,-10.147 7.128,-13.245 3.005,-2.019 6.554,-2.322 10.104,-1.477 1.479,0.352 1.821,0.922 1.821,2.416 0,2.383 0.001,4.765 -10e-4,7.148 -0.001,1.4 -0.237,1.74 -1.542,2.213 -0.496,0.18 -0.999,0.338 -1.495,0.517 -0.207,0.075 -0.356,0.22 -0.313,0.467 0.045,0.268 0.262,0.287 0.472,0.286 C -4.161,8.044 -1.102,8.123 1.951,7.889 2.18,7.871 2.427,7.909 2.463,7.56 2.501,7.195 2.26,7.133 2,7.039 0.198,6.387 0.004,6.113 0,4.236 -0.002,2.824 0,1.412 0,0" /></g><g
           transform="translate(192.0562,68.1309)"
           id="g84"><path
             id="path86"
             style="fill:#4daf52;fill-opacity:1;fill-rule:nonzero;stroke:none"
             d="m 0,0 c 0,2.882 0.004,5.763 -0.005,8.645 -0.001,0.409 -0.045,0.822 -0.115,1.226 -0.111,0.652 -0.469,1.051 -1.181,1.077 -0.558,0.021 -1.118,0.073 -1.644,0.28 -0.261,0.102 -0.468,0.318 -0.421,0.605 0.046,0.282 0.339,0.302 0.571,0.299 2.702,-0.035 5.404,0.246 8.106,0.006 0.277,-0.025 0.602,0.024 0.64,-0.417 C 5.989,11.28 5.667,11.279 5.394,11.195 3.749,10.688 3.457,10.286 3.457,8.533 3.457,3.416 3.472,-1.701 3.453,-6.818 3.432,-12.508 0.064,-17.1 -5.089,-18.516 c -6.335,-1.742 -13.39,2.091 -15.337,8.356 -0.305,0.983 -0.406,2.014 -0.406,3.049 0,4.999 0,9.999 -10e-4,14.999 0,0.323 0.007,0.647 -0.021,0.968 -0.146,1.695 -0.209,1.757 -1.882,2.002 -0.029,0.004 -0.059,0.006 -0.087,0.015 -0.532,0.172 -1.422,0.106 -1.337,0.841 0.076,0.664 0.888,0.341 1.359,0.311 2.557,-0.162 5.107,0.209 7.662,0.068 0.323,-0.018 0.646,-0.03 0.969,-0.053 0.25,-0.018 0.488,-0.098 0.511,-0.384 0.023,-0.296 -0.212,-0.39 -0.457,-0.434 -0.174,-0.032 -0.353,-0.033 -0.525,-0.07 -1.292,-0.273 -1.672,-0.703 -1.786,-2.019 -0.018,-0.204 -0.016,-0.411 -0.017,-0.617 -0.016,-5.498 -0.035,-10.997 -0.047,-16.496 -0.003,-1.241 0.114,-2.467 0.57,-3.635 1.524,-3.905 5.857,-5.875 10.134,-4.617 3.674,1.08 5.818,3.945 5.861,7.852 0.015,1.411 0.002,2.823 0.002,4.234 l 0,4.146 z" /></g><g
           transform="translate(274.2002,56.5508)"
           id="g88"><path
             id="path90"
             style="fill:#4daf52;fill-opacity:1;fill-rule:nonzero;stroke:none"
             d="m 0,0 c 0.266,0.593 0.47,1.033 0.663,1.479 2.477,5.706 5.056,11.37 6.859,17.341 0.297,0.984 0.528,1.983 0.644,3.009 0.063,0.555 -0.12,0.818 -0.671,0.882 -0.435,0.051 -0.865,0.158 -1.3,0.229 -0.243,0.04 -0.365,0.17 -0.356,0.414 0.009,0.217 0.163,0.3 0.346,0.334 0.143,0.028 0.291,0.037 0.437,0.046 2.525,0.175 5.052,0.112 7.578,0.04 0.332,-0.009 0.738,-0.001 0.74,-0.531 0.001,-0.488 -0.411,-0.456 -0.676,-0.482 C 12.846,22.618 12.147,21.715 11.611,20.507 8.576,13.667 5.762,6.733 2.83,-0.149 1.922,-2.282 0.943,-4.385 -0.007,-6.499 c -0.179,-0.397 -0.321,-0.777 -0.91,-0.797 -0.646,-0.021 -0.778,0.414 -0.974,0.831 -2.54,5.428 -4.614,11.043 -6.689,16.658 -1.345,3.636 -2.809,7.218 -4.465,10.724 -0.389,0.823 -0.967,1.281 -1.805,1.524 -0.616,0.179 -1.275,0.247 -1.826,0.62 -0.187,0.126 -0.462,0.205 -0.397,0.51 0.064,0.307 0.333,0.286 0.565,0.287 3.293,0.015 6.586,0.031 9.879,0.034 0.265,0 0.653,0.089 0.681,-0.348 0.025,-0.412 -0.319,-0.421 -0.616,-0.458 C -6.709,23.067 -6.851,23.02 -6.994,22.991 -7.929,22.81 -8.129,22.52 -7.906,21.619 -7.039,18.107 -5.823,14.712 -4.492,11.354 -3.098,7.834 -1.721,4.309 -0.335,0.787 -0.253,0.58 -0.161,0.377 0,0" /></g><g
           transform="translate(303.2471,80.4014)"
           id="g92"><path
             id="path94"
             style="fill:#4daf52;fill-opacity:1;fill-rule:nonzero;stroke:none"
             d="M 0,0 H 6.972 C 7.499,0 8.013,-0.01 8.521,0.228 9.073,0.485 9.367,0.256 9.289,-0.374 9.093,-1.949 8.771,-3.501 8.388,-5.041 8.304,-5.378 8.122,-5.541 7.767,-5.525 7.407,-5.509 7.386,-5.268 7.326,-4.989 6.89,-2.979 6.169,-2.301 4.095,-2.187 2.72,-2.11 1.334,-2.218 -0.047,-2.241 -0.47,-2.248 -0.643,-2.413 -0.64,-2.879 c 0.021,-3.206 0.022,-6.413 0,-9.62 -0.004,-0.521 0.182,-0.638 0.662,-0.631 1.736,0.024 3.472,0.012 5.207,0.008 0.866,-0.002 1.548,0.519 2.315,0.797 1.094,0.395 1.325,0.212 1.167,-0.943 -0.213,-1.542 -0.409,-3.086 -0.612,-4.63 -0.034,-0.258 -0.006,-0.558 -0.345,-0.639 -0.34,-0.081 -0.561,0.118 -0.731,0.377 -0.293,0.447 -0.448,0.952 -0.582,1.465 -0.136,0.523 -0.429,0.863 -0.988,1.001 -1.885,0.465 -3.801,0.304 -5.707,0.335 -0.408,0.005 -0.374,-0.28 -0.374,-0.544 -0.001,-3.383 0.002,-6.767 -0.004,-10.15 -0.001,-0.354 0.17,-0.608 0.376,-0.864 1.754,-2.187 6.041,-2.487 8.069,-0.565 0.616,0.582 1.002,1.302 1.247,2.098 0.113,0.371 0.223,0.691 0.704,0.569 0.522,-0.133 0.34,-0.477 0.276,-0.834 -0.215,-1.214 -0.467,-2.43 -0.552,-3.656 -0.057,-0.824 -0.43,-1.144 -1.156,-1.239 -0.117,-0.015 -0.235,-0.024 -0.353,-0.022 -4.938,0.089 -9.88,-0.23 -14.816,0.148 -0.176,0.014 -0.352,0.022 -0.528,0.037 -0.224,0.02 -0.414,0.107 -0.417,0.359 -0.004,0.253 0.192,0.305 0.407,0.371 1.978,0.597 2.347,1.006 2.355,3.095 0.036,7.796 0.032,15.592 0.027,23.388 0,1.102 -0.314,1.432 -1.382,1.731 -0.45,0.126 -0.907,0.256 -1.328,0.455 -0.289,0.137 -0.767,0.24 -0.641,0.705 0.112,0.408 0.54,0.27 0.842,0.271 C -5.002,0.004 -2.501,0 0,0" /></g><g
           transform="translate(269.9961,117.4751)"
           id="g96"><path
             id="path98"
             style="fill:#4daf52;fill-opacity:1;fill-rule:nonzero;stroke:none"
             d="M 0,0 C 2.205,0 4.411,-0.006 6.616,0.003 7.285,0.006 7.948,-0.06 8.602,0.262 9.062,0.488 9.413,0.272 9.334,-0.323 9.121,-1.926 8.807,-3.509 8.409,-5.076 8.335,-5.367 8.159,-5.528 7.843,-5.521 c -0.342,0.008 -0.406,0.219 -0.475,0.51 -0.525,2.172 -1.307,2.809 -3.55,2.86 -1.174,0.026 -2.35,-0.013 -3.526,-0.023 -0.635,-0.005 -0.966,-0.188 -0.953,-0.96 0.051,-3.058 0.042,-6.117 0.005,-9.175 -0.008,-0.673 0.189,-0.863 0.844,-0.826 0.967,0.055 1.942,0.042 2.911,0.008 1.569,-0.056 3.078,0.038 4.523,0.811 0.984,0.526 1.275,0.232 1.124,-0.849 -0.216,-1.542 -0.407,-3.086 -0.604,-4.63 -0.037,-0.283 0.036,-0.623 -0.354,-0.714 -0.385,-0.09 -0.63,0.151 -0.774,0.448 -0.204,0.419 -0.399,0.856 -0.506,1.307 -0.167,0.704 -0.612,1.041 -1.279,1.155 -1.747,0.297 -3.508,0.307 -5.272,0.32 -0.447,0.004 -0.531,-0.2 -0.53,-0.59 0.01,-3.382 0.011,-6.764 -0.002,-10.146 -0.002,-0.466 0.24,-0.771 0.518,-1.074 2.677,-2.928 7.769,-1.978 9.139,1.709 0.13,0.347 0.223,0.695 0.704,0.585 0.534,-0.122 0.348,-0.482 0.288,-0.831 -0.199,-1.158 -0.401,-2.316 -0.546,-3.48 -0.156,-1.263 -0.278,-1.443 -1.591,-1.454 -3.411,-0.027 -6.822,-0.018 -10.232,-0.023 -1.588,-0.001 -3.174,0.035 -4.755,0.196 -0.28,0.029 -0.664,-0.032 -0.693,0.368 -0.031,0.42 0.361,0.397 0.639,0.428 1.199,0.128 1.84,0.824 2.017,1.978 0.074,0.491 0.129,0.991 0.13,1.488 0.008,7.558 0.006,15.116 0.005,22.674 0,1.424 -0.212,1.68 -1.611,2.085 -0.42,0.121 -0.836,0.277 -1.229,0.469 -0.243,0.118 -0.612,0.224 -0.53,0.605 0.088,0.405 0.464,0.286 0.734,0.287 C -5.059,0.003 -2.529,0 0,0" /></g><g
           transform="translate(241.3877,102.5322)"
           id="g100"><path
             id="path102"
             style="fill:#4daf52;fill-opacity:1;fill-rule:nonzero;stroke:none"
             d="m 0,0 c 0,3.765 0.002,7.531 -0.001,11.296 -0.001,1.658 -0.189,1.911 -1.781,2.321 -0.492,0.127 -0.945,0.318 -1.365,0.593 -0.171,0.113 -0.371,0.228 -0.262,0.484 0.076,0.18 0.24,0.245 0.431,0.245 0.236,0 0.471,0.004 0.707,0.004 h 14.12 c 0.556,0 1.095,-0.007 1.634,0.244 0.495,0.229 0.88,0.084 0.786,-0.592 C 14.052,13.053 13.749,11.527 13.38,10.014 13.299,9.682 13.172,9.401 12.744,9.425 12.318,9.448 12.347,9.783 12.28,10.057 11.822,11.966 11.08,12.662 9.146,12.771 7.799,12.846 6.443,12.781 5.091,12.758 4.546,12.749 4.227,12.603 4.239,11.883 4.296,8.795 4.287,5.705 4.245,2.617 4.236,1.914 4.479,1.783 5.105,1.81 6.191,1.855 7.283,1.861 8.37,1.812 c 1.432,-0.064 2.808,0.046 4.084,0.792 0.337,0.197 0.762,0.426 1.15,0.092 0.337,-0.29 0.079,-0.662 0.04,-0.993 -0.183,-1.547 -0.384,-3.091 -0.571,-4.637 -0.031,-0.262 0.008,-0.549 -0.334,-0.634 -0.342,-0.084 -0.566,0.116 -0.739,0.365 -0.288,0.415 -0.461,0.887 -0.561,1.377 -0.144,0.708 -0.613,1.05 -1.273,1.164 -1.774,0.308 -3.567,0.321 -5.36,0.323 C 4.408,-0.338 4.309,-0.53 4.309,-0.884 4.314,-4.268 4.31,-7.65 4.315,-11.033 c 10e-4,-0.742 0.531,-1.202 1.053,-1.544 1.895,-1.239 3.936,-1.667 6.11,-0.787 1.178,0.476 1.962,1.366 2.418,2.548 0.074,0.191 0.146,0.385 0.193,0.584 0.091,0.376 0.341,0.46 0.668,0.37 0.313,-0.086 0.354,-0.295 0.299,-0.615 -0.249,-1.417 -0.478,-2.837 -0.681,-4.261 -0.063,-0.447 -0.23,-0.698 -0.7,-0.734 -0.288,-0.022 -0.573,-0.146 -0.861,-0.146 -4.323,-10e-4 -8.646,0.004 -12.969,0.028 -0.734,0.005 -1.466,0.104 -2.199,0.163 -0.209,0.017 -0.422,0.055 -0.456,0.319 -0.041,0.321 0.192,0.369 0.433,0.436 1.856,0.515 2.313,1.004 2.335,2.935 0.047,3.912 0.015,7.825 0.015,11.737 z" /></g><g
           transform="translate(179.0977,27.8525)"
           id="g104"><path
             id="path106"
             style="fill:#2b5e9f;fill-opacity:1;fill-rule:nonzero;stroke:none"
             d="m 0,0 c 0,4 -0.02,8.002 0.017,12.002 0.007,0.744 -0.207,0.939 -0.935,0.913 -1.557,-0.058 -3.123,-0.1 -4.675,0.003 -1.906,0.127 -3.119,-0.777 -4.005,-2.324 -0.185,-0.323 -0.297,-0.749 -0.815,-0.63 -0.544,0.126 -0.397,0.585 -0.408,0.938 -0.055,1.658 0.761,3.122 1.073,4.701 0.095,0.476 0.514,0.451 0.853,0.294 1.57,-0.719 3.228,-0.791 4.916,-0.783 4.943,0.023 9.885,0.033 14.827,-0.01 1.111,-0.011 2.149,0.266 3.215,0.452 0.482,0.084 0.823,0.016 0.815,-0.583 -0.02,-1.617 -0.041,-3.233 -0.39,-4.825 C 14.42,9.835 14.341,9.572 13.968,9.556 13.616,9.54 13.453,9.725 13.378,10.069 12.932,12.131 11.688,12.793 9.39,12.922 7.871,13.007 6.338,12.838 4.811,12.808 4.443,12.8 4.371,12.644 4.378,12.326 c 0.016,-0.617 0.005,-1.235 0.005,-1.853 0,-6.737 0.003,-13.474 -0.004,-20.21 -10e-4,-1.035 0.178,-2.045 0.319,-3.064 0.092,-0.665 0.465,-0.985 1.077,-1.089 0.549,-0.092 1.108,-0.138 1.651,-0.254 0.362,-0.077 0.695,-0.306 0.634,-0.722 -0.059,-0.397 -0.466,-0.3 -0.727,-0.296 -3.115,0.045 -6.231,-0.174 -9.346,-0.007 -0.308,0.017 -0.748,-0.06 -0.792,0.36 -0.048,0.467 0.427,0.379 0.714,0.454 1.77,0.456 2.058,0.808 2.06,2.618 0.005,3.912 0.002,7.824 0.002,11.737 z" /></g><g
           transform="translate(400.834,65.0156)"
           id="g108"><path
             id="path110"
             style="fill:#4daf52;fill-opacity:1;fill-rule:nonzero;stroke:none"
             d="m 0,0 c 0,4 -0.018,8.001 0.017,12.001 0.005,0.699 -0.188,0.898 -0.882,0.875 -1.557,-0.052 -3.121,-0.085 -4.675,0.001 -1.881,0.104 -3.133,-0.751 -4.031,-2.303 -0.195,-0.337 -0.306,-0.848 -0.867,-0.678 -0.548,0.165 -0.376,0.67 -0.379,1.051 -0.013,1.622 0.761,3.065 1.086,4.613 0.096,0.461 0.527,0.408 0.871,0.255 1.484,-0.661 3.047,-0.796 4.649,-0.79 4.971,0.02 9.942,0.031 14.912,-0.01 1.139,-0.009 2.213,0.238 3.303,0.464 0.516,0.107 0.878,0.038 0.873,-0.61 -0.01,-1.558 -0.038,-3.115 -0.356,-4.649 -0.071,-0.339 -0.083,-0.729 -0.589,-0.73 -0.44,0 -0.481,0.319 -0.581,0.638 -0.592,1.865 -1.541,2.621 -3.743,2.71 C 7.999,12.904 6.382,12.751 4.768,12.715 4.191,12.702 4.394,12.286 4.392,12.02 4.379,8.932 4.384,5.843 4.384,2.755 c 0,-4.148 0.007,-8.295 -0.005,-12.443 -0.003,-1.063 0.183,-2.102 0.312,-3.151 0.09,-0.721 0.497,-1.019 1.135,-1.133 0.575,-0.101 1.16,-0.163 1.729,-0.299 0.288,-0.069 0.542,-0.3 0.511,-0.636 -0.035,-0.385 -0.38,-0.3 -0.625,-0.299 -3.174,0.012 -6.349,-0.143 -9.524,-0.004 -0.281,0.012 -0.669,-0.077 -0.725,0.312 -0.059,0.419 0.35,0.382 0.618,0.454 1.945,0.516 2.149,0.754 2.158,2.798 0.014,3.882 0.004,7.764 0.004,11.646 z" /></g><g
           transform="translate(367.8662,78.0986)"
           id="g112"><path
             id="path114"
             style="fill:#4daf52;fill-opacity:1;fill-rule:nonzero;stroke:none"
             d="m 0,0 c -0.085,-1.137 0.051,-2.302 -0.557,-3.355 -0.161,-0.282 -0.347,-0.474 -0.694,-0.415 -0.384,0.066 -0.397,0.352 -0.416,0.666 -0.116,1.996 -1.182,3.294 -3.048,3.877 -1.96,0.614 -3.764,0.247 -5.131,-1.348 -1.288,-1.502 -1.439,-3.24 -0.607,-5.026 0.566,-1.215 1.465,-2.189 2.454,-3.083 1.94,-1.752 4.047,-3.319 5.869,-5.204 1.455,-1.506 2.622,-3.185 2.898,-5.322 0.294,-2.284 -0.454,-4.253 -2.072,-5.848 -3.059,-3.014 -6.702,-4.421 -10.993,-3.544 -2.607,0.535 -3.631,2.332 -3.049,4.922 0.174,0.774 0.353,1.544 0.522,2.318 0.083,0.374 0.285,0.561 0.683,0.504 0.388,-0.056 0.365,-0.348 0.323,-0.603 -0.587,-3.527 3.443,-5.76 6.695,-4.962 0.924,0.227 1.766,0.619 2.51,1.225 1.67,1.357 2.126,3.254 1.235,5.209 -0.72,1.58 -1.859,2.848 -3.065,4.057 -1.764,1.77 -3.568,3.499 -5.329,5.271 -0.915,0.92 -1.69,1.956 -2.331,3.088 -1.838,3.25 -1.168,6.287 1.967,8.336 3.547,2.318 7.439,2.685 11.509,1.788 C -0.182,2.452 0.022,2.228 0.005,1.763 -0.017,1.176 0,0.588 0,0" /></g><g
           transform="translate(322.9404,165.6211)"
           id="g116"><path
             id="path118"
             style="fill:#4ec0df;fill-opacity:1;fill-rule:nonzero;stroke:none"
             d="m 0,0 c -4.13,-0.005 -7.394,3.136 -7.404,7.129 -0.012,4.097 3.189,7.251 7.359,7.251 4.149,0 7.348,-3.116 7.349,-7.162 C 7.306,3.165 4.108,0.006 0,0" /></g><g
           transform="translate(340.2842,161.1846)"
           id="g120"><path
             id="path122"
             style="fill:#3b90b0;fill-opacity:1;fill-rule:nonzero;stroke:none"
             d="m 0,0 c -0.02,-2.178 -0.706,-4.096 -2.25,-5.664 -2.676,-2.716 -6.871,-2.575 -9.377,0.302 -2.51,2.881 -2.631,7.417 -0.279,10.439 2.771,3.561 7.764,3.471 10.394,-0.195 C -0.468,3.427 0.027,1.793 0,0" /></g><g
           transform="translate(378.8252,80.2285)"
           id="g124"><path
             id="path126"
             style="fill:#4daf52;fill-opacity:1;fill-rule:nonzero;stroke:none"
             d="M 0,0 C 1.469,0 2.938,0.003 4.407,-0.003 4.69,-0.005 5.06,0.053 5.122,-0.338 5.19,-0.762 4.789,-0.75 4.527,-0.827 2.412,-1.447 2.234,-1.683 2.234,-3.918 c -10e-4,-6.853 0.011,-13.707 -0.009,-20.56 -0.004,-1.281 0.254,-2.503 0.541,-3.736 0.159,-0.682 0.55,-0.984 1.224,-1.019 0.439,-0.023 0.89,-0.037 1.309,-0.153 0.317,-0.088 0.758,-0.26 0.68,-0.681 -0.075,-0.41 -0.518,-0.318 -0.821,-0.292 -1.966,0.165 -3.935,0.143 -5.904,0.139 -1.411,-0.004 -2.823,-0.021 -4.234,-0.023 -0.312,-0.001 -0.734,-0.067 -0.698,0.424 0.026,0.345 0.27,0.509 0.677,0.53 2.052,0.103 2.573,0.607 2.819,2.68 0.074,0.611 0.119,1.23 0.119,1.845 0.008,7.03 0.006,14.059 0.005,21.089 0,1.85 -0.443,2.389 -2.24,2.789 -0.303,0.069 -0.808,-0.023 -0.73,0.532 0.066,0.47 0.507,0.328 0.793,0.333 1.411,0.023 2.823,0.01 4.235,0.01 z" /></g><g
           transform="translate(248.123,65.8086)"
           id="g128"><path
             id="path130"
             style="fill:#4daf52;fill-opacity:1;fill-rule:nonzero;stroke:none"
             d="m 0,0 c 0,-3.325 0.022,-6.649 -0.012,-9.974 -0.013,-1.281 0.238,-2.504 0.509,-3.74 0.169,-0.771 0.614,-1.072 1.345,-1.116 0.466,-0.028 0.947,0.011 1.383,-0.205 0.264,-0.131 0.575,-0.281 0.481,-0.642 -0.086,-0.33 -0.416,-0.275 -0.672,-0.266 -1.203,0.042 -2.406,0.128 -3.609,0.136 -2.177,0.017 -4.354,-0.016 -6.53,-0.013 -0.32,0 -0.809,-0.146 -0.806,0.401 0.003,0.492 0.381,0.521 0.82,0.533 1.695,0.045 2.412,0.71 2.641,2.409 0.094,0.698 0.151,1.406 0.152,2.108 0.011,6.973 0.007,13.945 0.006,20.917 0,2.099 -0.32,2.496 -2.405,3.013 -0.267,0.066 -0.639,0.049 -0.578,0.495 0.049,0.374 0.36,0.333 0.615,0.335 2.939,0.013 5.88,0.022 8.819,0.026 0.285,10e-4 0.663,0.053 0.713,-0.336 0.063,-0.48 -0.4,-0.431 -0.68,-0.508 C 0.258,13.042 0,12.711 0,10.679 -0.001,7.119 0,3.56 0,0" /></g><g
           transform="translate(321.3379,190.0474)"
           id="g132"><path
             id="path134"
             style="fill:#9cc658;fill-opacity:1;fill-rule:nonzero;stroke:none"
             d="m 0,0 c 3.018,-0.134 5.703,-1.071 7.739,-3.408 2.19,-2.514 1.32,-5.438 -1.923,-6.196 -3.857,-0.902 -7.254,0.182 -9.921,3.076 -2.358,2.559 -1.245,5.591 2.172,6.332 C -1.293,-0.058 -0.655,-0.012 0,0" /></g><g
           transform="translate(349.2773,163.6362)"
           id="g136"><path
             id="path138"
             style="fill:#9cc658;fill-opacity:1;fill-rule:nonzero;stroke:none"
             d="m 0,0 c 0.023,-1.784 -0.235,-3.365 -1.045,-4.818 -1.339,-2.405 -3.56,-2.7 -5.373,-0.625 -1.796,2.056 -2.297,4.582 -2.263,7.234 0.023,1.79 0.356,3.511 1.46,4.989 1.26,1.685 3.091,1.833 4.631,0.359 C -1.217,5.825 -0.585,4.124 -0.215,2.312 -0.05,1.505 0.046,0.686 0,0" /></g><g
           transform="translate(170.9692,171.6626)"
           id="g140"><path
             id="path142"
             style="fill:#28292c;fill-opacity:1;fill-rule:nonzero;stroke:none"
             d="m 0,0 c 2.511,-1.386 5.052,-2.695 7.717,-3.784 3.272,-1.336 6.316,-1.017 9.353,0.673 2.156,1.2 4.197,2.563 6.208,3.979 0.191,0.049 0.244,-0.033 0.199,-0.209 -3.728,-4.098 -7.465,-8.188 -11.173,-12.304 -0.434,-0.481 -0.658,-0.336 -1.024,0.031 C 9.397,-9.72 7.494,-7.847 5.601,-5.964 3.667,-4.04 1.737,-2.112 -0.195,-0.187 -0.232,-0.018 -0.193,0.072 0,0" /></g><g
           transform="translate(337.1357,183.2939)"
           id="g144"><path
             id="path146"
             style="fill:#4fc2e9;fill-opacity:1;fill-rule:nonzero;stroke:none"
             d="m 0,0 c -1.264,0.013 -2.426,0.427 -3.534,0.976 -2.404,1.192 -4.497,2.777 -6.019,5.029 -0.412,0.611 -0.762,1.254 -0.802,2.022 -0.06,1.169 0.443,1.758 1.613,1.857 0.684,0.058 1.351,-0.052 2,-0.253 3.225,-0.994 5.808,-2.9 7.823,-5.586 C 1.394,3.627 1.647,3.145 1.836,2.657 2.47,1.019 1.752,0.002 0,0" /></g><g
           transform="translate(349.1416,172.8906)"
           id="g148"><path
             id="path150"
             style="fill:#367392;fill-opacity:1;fill-rule:nonzero;stroke:none"
             d="m 0,0 c 0.044,-1.578 -0.712,-2.083 -2.01,-1.447 -1.18,0.579 -2.1,1.492 -2.926,2.494 -2.071,2.516 -3.812,5.206 -4.384,8.497 -0.12,0.691 -0.159,1.43 0.47,1.848 0.596,0.395 1.249,0.087 1.818,-0.259 C -5.73,10.342 -4.716,9.242 -3.8,8.05 -2.179,5.942 -0.829,3.687 -0.18,1.073 -0.082,0.677 -0.044,0.266 0,0" /></g><g
           transform="translate(325.2168,147.4771)"
           id="g152"><path
             id="path154"
             style="fill:#285c84;fill-opacity:1;fill-rule:nonzero;stroke:none"
             d="M 0,0 C 0.036,2.573 2.15,4.783 4.516,4.719 6.624,4.663 8.183,2.914 8.147,0.643 8.109,-1.907 5.977,-4.126 3.615,-4.072 1.494,-4.024 -0.031,-2.306 0,0" /></g><g
           transform="translate(310.3457,165.9351)"
           id="g156"><path
             id="path158"
             style="fill:#3abbd6;fill-opacity:1;fill-rule:nonzero;stroke:none"
             d="m 0,0 c -2.45,0.004 -4.244,1.793 -4.23,4.218 0.013,2.333 1.869,4.145 4.24,4.14 C 2.353,8.354 4.268,6.491 4.279,4.205 4.292,1.837 2.418,-0.004 0,0" /></g><g
           transform="translate(183.1475,168.7939)"
           id="g160"><path
             id="path162"
             style="fill:#343363;fill-opacity:1;fill-rule:nonzero;stroke:none"
             d="m 0,0 c -2.049,0.005 -3.581,1.608 -3.578,3.745 0.002,2.132 1.55,3.772 3.569,3.781 C 2.018,7.535 3.69,5.795 3.657,3.713 3.625,1.618 2.026,-0.005 0,0" /></g><g
           transform="translate(311.1641,187.376)"
           id="g164"><path
             id="path166"
             style="fill:#90c14a;fill-opacity:1;fill-rule:nonzero;stroke:none"
             d="m 0,0 c -1.298,0.066 -2.621,0.28 -3.766,1.089 -1.282,0.906 -1.198,2.2 0.249,2.75 2.144,0.814 4.259,0.625 6.234,-0.58 C 3.251,2.934 3.703,2.457 3.636,1.763 3.564,1.032 2.997,0.676 2.384,0.421 1.645,0.115 0.86,0.02 0,0" /></g><g
           transform="translate(346.9512,151.7251)"
           id="g168"><path
             id="path170"
             style="fill:#90c14a;fill-opacity:1;fill-rule:nonzero;stroke:none"
             d="M 0,0 C 0.003,1.617 0.279,2.956 0.83,4.231 0.979,4.576 1.176,4.916 1.416,5.204 2.08,6.002 2.729,5.881 3.087,4.893 3.36,4.14 3.411,3.346 3.356,2.554 3.248,0.966 2.982,-0.585 2.1,-1.958 1.842,-2.36 1.538,-2.764 0.986,-2.656 0.443,-2.55 0.313,-2.057 0.188,-1.604 0.023,-1.006 -0.032,-0.396 0,0" /></g><g
           transform="translate(327.2617,193.4644)"
           id="g172"><path
             id="path174"
             style="fill:#51bfd3;fill-opacity:1;fill-rule:nonzero;stroke:none"
             d="m 0,0 c -2.063,0.185 -3.919,0.769 -5.594,1.872 -0.353,0.233 -0.829,0.502 -0.64,1.029 0.173,0.486 0.689,0.373 1.081,0.365 C -3.144,3.219 -1.296,2.598 0.419,1.579 0.85,1.324 1.511,1.066 1.321,0.434 1.12,-0.236 0.406,0.15 0,0" /></g><g
           transform="translate(327.1562,138.5581)"
           id="g176"><path
             id="path178"
             style="fill:#273e5f;fill-opacity:1;fill-rule:nonzero;stroke:none"
             d="m 0,0 c 0.008,-1.224 -1.014,-2.341 -2.151,-2.355 -1.038,-0.014 -1.788,0.818 -1.787,1.98 0.003,1.235 0.937,2.258 2.089,2.289 C -0.796,1.941 -0.006,1.124 0,0" /></g><g
           transform="translate(299.2734,169.2656)"
           id="g180"><path
             id="path182"
             style="fill:#60bedf;fill-opacity:1;fill-rule:nonzero;stroke:none"
             d="M 0,0 C 0.007,1.128 0.917,2.027 2.023,2 3.115,1.973 4.073,1.01 4.056,-0.042 4.037,-1.122 3.085,-2.035 1.983,-2.029 0.855,-2.023 -0.007,-1.141 0,0" /></g><g
           transform="translate(300.4609,188.4868)"
           id="g184"><path
             id="path186"
             style="fill:#75b24b;fill-opacity:1;fill-rule:nonzero;stroke:none"
             d="M 0,0 C -0.108,0.017 -0.252,0.04 -0.396,0.063 -0.907,0.147 -1.573,0.114 -1.681,0.748 -1.798,1.444 -1.128,1.652 -0.623,1.841 0.351,2.207 1.361,2.356 2.383,2.017 2.659,1.925 2.959,1.802 3.011,1.467 3.068,1.1 2.823,0.871 2.547,0.686 1.788,0.176 0.914,0.084 0,0" /></g><g
           transform="translate(315.8486,198.3472)"
           id="g188"><path
             id="path190"
             style="fill:#1ea9c0;fill-opacity:1;fill-rule:nonzero;stroke:none"
             d="M 0,0 C 1.318,-0.112 2.563,-0.51 3.7,-1.217 3.988,-1.396 4.398,-1.599 4.251,-2.012 4.107,-2.415 3.659,-2.328 3.323,-2.302 2.02,-2.204 0.795,-1.82 -0.334,-1.162 -0.674,-0.963 -1.187,-0.758 -1.039,-0.278 -0.898,0.182 -0.372,-0.087 0,0" /></g><g
           transform="translate(346.7578,143.6997)"
           id="g192"><path
             id="path194"
             style="fill:#75b24b;fill-opacity:1;fill-rule:nonzero;stroke:none"
             d="M 0,0 C -0.013,0.991 0.281,1.902 0.772,2.747 0.957,3.065 1.182,3.477 1.63,3.375 2.133,3.262 2.123,2.763 2.132,2.369 2.156,1.236 1.885,0.17 1.275,-0.795 1.072,-1.117 0.85,-1.494 0.39,-1.335 -0.014,-1.197 0.02,-0.787 0.001,-0.438 -0.007,-0.292 0,-0.146 0,0" /></g><g
           transform="translate(194.4458,172.3213)"
           id="g196"><path
             id="path198"
             style="fill:#46474b;fill-opacity:1;fill-rule:nonzero;stroke:none"
             d="M 0,0 C -0.066,0.07 -0.132,0.14 -0.198,0.209 0.037,0.396 0.272,0.582 0.507,0.768 0.595,0.698 0.602,0.621 0.529,0.537 0.353,0.358 0.176,0.179 0,0" /></g><g
           transform="translate(170.9692,171.6626)"
           id="g200"><path
             id="path202"
             style="fill:#555558;fill-opacity:1;fill-rule:nonzero;stroke:none"
             d="M 0,0 C -0.065,-0.062 -0.13,-0.124 -0.195,-0.187 -0.369,-0.049 -0.543,0.087 -0.771,0.267 -0.375,0.396 -0.188,0.196 0,0" /></g><g
           transform="translate(194.9751,172.8579)"
           id="g204"><path
             id="path206"
             style="fill:#78797b;fill-opacity:1;fill-rule:nonzero;stroke:none"
             d="M 0,0 -0.022,0.231 C 0.08,0.407 0.187,0.574 0.45,0.506 0.366,0.263 0.191,0.125 0,0" /></g><g
           transform="translate(72.4712,48.6064)"
           id="g208"><path
             id="path210"
             style="fill:#90c14a;fill-opacity:1;fill-rule:nonzero;stroke:none"
             d="m 0,0 c 4.657,-0.095 8.908,-1.258 12.299,-4.68 0.081,-0.082 0.147,-0.18 0.221,-0.271 -0.035,-0.702 0.248,-0.531 0.561,-0.195 1.136,1.22 2.501,2.116 3.992,2.833 2.33,1.123 4.815,1.628 7.373,1.753 1.843,0.089 3.692,0.058 5.53,-0.171 -0.975,-7.774 -2.809,-15.333 -5.681,-22.628 -3.007,-7.634 -6.93,-14.759 -11.915,-21.288 -0.139,-0.182 -0.304,-0.344 -0.492,-0.555 -0.295,0.491 -0.237,0.996 -0.336,1.464 C 10.446,-28.679 6.477,-14.37 0.266,-0.647 0.169,-0.436 0.088,-0.216 0,0" /></g><g
           transform="translate(262.666,144.8984)"
           id="g212"><path
             id="path214"
             style="fill:#2b5e9f;fill-opacity:1;fill-rule:nonzero;stroke:none"
             d="m 0,0 c -1.247,-0.392 -2.553,-0.335 -3.572,-0.41 -1.119,0 -1.972,0.015 -2.824,-0.007 -0.433,-0.011 -0.556,0.101 -0.456,0.556 0.363,1.632 0.695,3.271 1.009,4.913 0.089,0.464 0.296,0.615 0.765,0.601 C -3.58,5.609 -2.081,5.639 -0.584,5.583 1.307,5.513 2.239,4.859 2.393,3.584 2.579,2.041 1.563,0.491 0,0 m -0.721,-12.442 c -1.005,-0.466 -2.079,-0.593 -3.171,-0.61 -0.704,-0.011 -1.408,-0.002 -2.113,-0.002 -1.026,10e-4 -2.055,0.011 -3.081,-0.004 -0.421,-0.006 -0.562,0.089 -0.455,0.559 0.413,1.799 0.79,3.606 1.152,5.416 0.083,0.416 0.298,0.501 0.67,0.498 1.995,-0.018 3.992,0.023 5.987,-0.04 1.701,-0.052 2.648,-0.779 2.882,-2.045 0.316,-1.701 -0.36,-3.071 -1.871,-3.772 m 6.58,9.273 c 0.599,0.251 1.066,0.424 1.513,0.637 4.509,2.139 5.932,8.074 2.796,11.763 -1.667,1.962 -3.906,2.766 -6.409,2.855 -5.673,0.202 -11.351,0.019 -17.025,0.112 -0.87,0.014 -1.129,-0.275 -1.297,-1.072 -2.133,-10.139 -4.295,-20.272 -6.479,-30.401 -0.147,-0.685 0.039,-0.773 0.652,-0.771 6.559,0.018 13.118,-0.008 19.676,0.022 2.225,0.01 4.37,0.453 6.364,1.515 3.644,1.942 5.758,5.905 5.228,9.876 -0.39,2.917 -2.233,4.538 -5.019,5.464" /></g><g
           transform="translate(330.4883,64.4844)"
           id="g216"><path
             id="path218"
             style="fill:#4daf52;fill-opacity:1;fill-rule:nonzero;stroke:none"
             d="m 0,0 c -1.146,-0.037 -2.286,0.006 -3.43,0.128 -0.55,0.059 -0.669,0.268 -0.663,0.768 0.022,2.028 0.009,4.056 0.009,6.084 0,1.941 0.05,3.882 -0.023,5.82 -0.032,0.829 0.307,1.054 1.025,1.159 2.773,0.405 4.934,-0.572 6.27,-3.043 C 4.598,8.308 4.803,5.544 3.82,2.744 3.123,0.757 2.086,0.067 0,0 m 18.601,-14.244 c -0.098,0.409 -0.382,0.348 -0.687,0.34 -0.994,-0.024 -1.91,0.261 -2.77,0.751 -2.004,1.136 -3.607,2.729 -5.011,4.518 -1.888,2.406 -3.706,4.864 -5.581,7.279 -0.269,0.346 -0.207,0.505 0.062,0.786 1.147,1.189 2.177,2.47 2.94,3.946 0.974,1.885 1.709,3.842 1.23,6.001 -0.748,3.384 -2.951,5.31 -6.296,5.975 -2.647,0.527 -5.33,0.347 -8.004,0.333 -1.82,-0.001 -3.641,0.003 -5.462,-0.006 -0.299,-10e-4 -0.725,0.119 -0.786,-0.337 -0.052,-0.4 0.248,-0.636 0.614,-0.753 0.166,-0.053 0.341,-0.086 0.514,-0.11 1.821,-0.244 2.067,-0.523 2.067,-2.369 0.001,-7.589 0.001,-15.179 0.001,-22.769 0,-1.979 0.132,-2.875 -2.335,-3.257 -0.259,-0.041 -0.478,-0.143 -0.442,-0.437 0.036,-0.294 0.295,-0.318 0.539,-0.33 0.235,-0.01 0.469,-0.03 0.703,-0.045 2.733,-0.17 5.468,-0.095 8.203,-0.081 0.494,0.003 1.358,-0.378 1.431,0.341 0.069,0.674 -0.812,0.682 -1.374,0.78 -1.794,0.314 -1.795,0.308 -2.134,2.12 -0.021,0.115 -0.03,0.233 -0.044,0.349 -0.291,2.317 -0.085,4.642 -0.129,6.962 -0.035,1.792 -0.007,1.782 1.814,1.762 1.695,-0.019 3.148,-0.504 4.278,-1.871 1.09,-1.317 2.07,-2.709 3.07,-4.089 1.225,-1.691 2.41,-3.412 3.994,-4.805 2.716,-2.386 5.758,-2.871 9.108,-1.574 0.262,0.102 0.588,0.16 0.487,0.59" /></g><g
           transform="translate(219.5586,103.6445)"
           id="g220"><path
             id="path222"
             style="fill:#4daf52;fill-opacity:1;fill-rule:nonzero;stroke:none"
             d="m 0,0 c -0.596,-1.319 -1.63,-2.028 -3.108,-2.065 -1.293,-0.032 -2.579,-0.017 -3.869,0.121 -0.553,0.058 -0.664,0.273 -0.658,0.772 0.022,2.026 0.009,4.053 0.009,6.08 0,1.968 0.039,3.937 -0.02,5.904 -0.022,0.738 0.285,0.946 0.921,1.054 2.804,0.475 5.009,-0.468 6.363,-2.98 C 1.185,6.016 1.362,3.015 0,0 m 15.104,-16.346 c -0.089,0.44 -0.384,0.411 -0.729,0.396 -1.029,-0.046 -1.963,0.272 -2.846,0.785 -2.232,1.296 -3.93,3.16 -5.481,5.172 -1.688,2.187 -3.327,4.412 -5.028,6.588 -0.339,0.435 -0.109,0.6 0.146,0.855 1.361,1.365 2.474,2.909 3.269,4.668 0.734,1.626 1.272,3.312 0.844,5.117 -0.884,3.732 -3.42,5.848 -7.366,6.216 -4.169,0.39 -8.347,0.04 -12.519,0.143 -0.254,0.007 -0.588,0.066 -0.659,-0.276 -0.075,-0.359 0.138,-0.628 0.473,-0.75 0.245,-0.089 0.51,-0.14 0.771,-0.172 1.585,-0.192 1.952,-0.598 1.953,-2.217 0.003,-3.942 10e-4,-7.883 10e-4,-11.825 0,-3.823 0.003,-7.647 -10e-4,-11.47 -0.002,-2.035 -0.199,-2.28 -2.134,-2.812 -0.258,-0.071 -0.674,-0.043 -0.65,-0.452 0.027,-0.471 0.45,-0.36 0.754,-0.384 2.112,-0.161 4.229,-0.121 6.345,-0.122 1.059,0 2.117,-0.002 3.176,0.002 0.261,0.001 0.571,-0.036 0.634,0.318 0.059,0.334 -0.231,0.45 -0.461,0.566 -0.454,0.231 -0.962,0.297 -1.454,0.304 -0.872,0.011 -1.281,0.393 -1.464,1.263 -0.655,3.123 -0.182,6.276 -0.334,9.411 -0.021,0.426 0.238,0.443 0.56,0.47 2.623,0.216 4.821,-0.496 6.307,-2.822 0.253,-0.395 0.556,-0.759 0.837,-1.135 1.496,-1.999 2.823,-4.127 4.539,-5.958 2.855,-3.044 6.455,-3.928 9.995,-2.437 0.246,0.103 0.613,0.111 0.522,0.558" /></g><g
           transform="translate(225.3462,19.584)"
           id="g224"><path
             id="path226"
             style="fill:#2b5e9f;fill-opacity:1;fill-rule:nonzero;stroke:none"
             d="m 0,0 c -3.493,-6.092 -11.728,-7.248 -16.776,-2.365 -3.382,3.269 -4.606,7.394 -4.806,11.816 0.131,4.017 1.137,7.554 4.141,10.262 3.752,3.383 10.961,4.037 15.558,-1.264 C 2.201,13.74 3.103,5.411 0,0 m 4.421,15.507 c -1.904,4.316 -4.998,7.361 -9.602,8.671 -3.347,0.952 -6.612,0.373 -9.87,-0.638 -9.055,-2.807 -12.039,-10.064 -10.481,-18.603 0.828,-4.541 4.053,-7.728 7.903,-10.17 2.821,-1.789 5.886,-2.626 9.237,-2.121 2.136,0.324 4.162,1.045 6.083,2.002 5.306,2.645 8.372,6.78 8.381,12.884 -0.019,2.774 -0.533,5.441 -1.651,7.975" /></g></g></g></g></svg>